<mxfile modified="2022-03-18T09:54:11.557Z" host="app.diagrams.net" agent="5.0 (X11)" etag="JdKp0oXgEOdk6xYF8_TN" version="16.5.6" type="github">
  <diagram id="7gcUSTIZ7YSJ5vT40chW" name="Page-1">
    <mxGraphModel dx="1350" dy="820" grid="0" gridSize="10" guides="1" tooltips="1" connect="1" arrows="1" fold="1" page="1" pageScale="1" pageWidth="1169" pageHeight="827" math="0" shadow="0">
      <root>
        <mxCell id="0" />
        <mxCell id="1" parent="0" />
        <mxCell id="orFexbNTXFUOZaCGS8_f-26" style="edgeStyle=orthogonalEdgeStyle;rounded=0;orthogonalLoop=1;jettySize=auto;html=1;entryX=1;entryY=0.5;entryDx=0;entryDy=0;" parent="1" source="orFexbNTXFUOZaCGS8_f-1" target="orFexbNTXFUOZaCGS8_f-17" edge="1">
          <mxGeometry relative="1" as="geometry" />
        </mxCell>
        <mxCell id="orFexbNTXFUOZaCGS8_f-1" value="&lt;div&gt;data for all scenarios&lt;/div&gt;&lt;div&gt;&lt;br&gt;&lt;/div&gt;" style="html=1;verticalLabelPosition=bottom;align=center;labelBackgroundColor=#ffffff;verticalAlign=top;strokeWidth=2;strokeColor=#0080F0;shadow=0;dashed=0;shape=mxgraph.ios7.icons.data;" parent="1" vertex="1">
          <mxGeometry x="809" y="666" width="62" height="54" as="geometry" />
        </mxCell>
        <mxCell id="orFexbNTXFUOZaCGS8_f-6" style="edgeStyle=orthogonalEdgeStyle;rounded=0;orthogonalLoop=1;jettySize=auto;html=1;" parent="1" source="orFexbNTXFUOZaCGS8_f-2" target="orFexbNTXFUOZaCGS8_f-3" edge="1">
          <mxGeometry relative="1" as="geometry" />
        </mxCell>
        <mxCell id="orFexbNTXFUOZaCGS8_f-2" value="current&lt;br&gt;&lt;div&gt;state&lt;/div&gt;&lt;div&gt;&lt;br&gt;&lt;/div&gt;" style="shape=ellipse;html=1;dashed=0;whitespace=wrap;aspect=fixed;perimeter=ellipsePerimeter;" parent="1" vertex="1">
          <mxGeometry x="176" y="540.5" width="60" height="60" as="geometry" />
        </mxCell>
        <mxCell id="orFexbNTXFUOZaCGS8_f-7" style="edgeStyle=orthogonalEdgeStyle;rounded=0;orthogonalLoop=1;jettySize=auto;html=1;entryX=0;entryY=0.5;entryDx=0;entryDy=0;" parent="1" source="orFexbNTXFUOZaCGS8_f-3" target="orFexbNTXFUOZaCGS8_f-5" edge="1">
          <mxGeometry relative="1" as="geometry" />
        </mxCell>
        <mxCell id="orFexbNTXFUOZaCGS8_f-3" value="state&lt;br&gt;&lt;div&gt;converter&lt;/div&gt;&lt;div&gt;&lt;br&gt;&lt;/div&gt;" style="sketch=0;outlineConnect=0;fontColor=#232F3E;gradientColor=none;fillColor=#067F68;strokeColor=none;dashed=0;verticalLabelPosition=bottom;verticalAlign=top;align=center;html=1;fontSize=12;fontStyle=0;aspect=fixed;pointerEvents=1;shape=mxgraph.aws4.sagemaker_model;" parent="1" vertex="1">
          <mxGeometry x="322" y="531" width="79" height="79" as="geometry" />
        </mxCell>
        <mxCell id="orFexbNTXFUOZaCGS8_f-21" style="edgeStyle=orthogonalEdgeStyle;rounded=0;orthogonalLoop=1;jettySize=auto;html=1;exitX=1;exitY=0.5;exitDx=0;exitDy=0;entryX=0;entryY=0.5;entryDx=0;entryDy=0;" parent="1" source="orFexbNTXFUOZaCGS8_f-5" target="orFexbNTXFUOZaCGS8_f-13" edge="1">
          <mxGeometry relative="1" as="geometry" />
        </mxCell>
        <mxCell id="orFexbNTXFUOZaCGS8_f-5" value="state&lt;br&gt;No x" style="shape=ellipse;html=1;dashed=0;whitespace=wrap;aspect=fixed;perimeter=ellipsePerimeter;" parent="1" vertex="1">
          <mxGeometry x="499" y="540.5" width="60" height="60" as="geometry" />
        </mxCell>
        <mxCell id="orFexbNTXFUOZaCGS8_f-8" value="" style="shape=table;html=1;whiteSpace=wrap;startSize=0;container=1;collapsible=0;childLayout=tableLayout;" parent="1" vertex="1">
          <mxGeometry x="611" y="513.63" width="150" height="113.75" as="geometry" />
        </mxCell>
        <mxCell id="orFexbNTXFUOZaCGS8_f-9" value="" style="shape=tableRow;horizontal=0;startSize=0;swimlaneHead=0;swimlaneBody=0;top=0;left=0;bottom=0;right=0;collapsible=0;dropTarget=0;fillColor=none;points=[[0,0.5],[1,0.5]];portConstraint=eastwest;" parent="orFexbNTXFUOZaCGS8_f-8" vertex="1">
          <mxGeometry width="150" height="35" as="geometry" />
        </mxCell>
        <mxCell id="orFexbNTXFUOZaCGS8_f-10" value="x:config1" style="shape=partialRectangle;html=1;whiteSpace=wrap;connectable=0;fillColor=none;top=0;left=0;bottom=0;right=0;overflow=hidden;" parent="orFexbNTXFUOZaCGS8_f-9" vertex="1">
          <mxGeometry width="50" height="35" as="geometry">
            <mxRectangle width="50" height="35" as="alternateBounds" />
          </mxGeometry>
        </mxCell>
        <mxCell id="orFexbNTXFUOZaCGS8_f-11" value="..." style="shape=partialRectangle;html=1;whiteSpace=wrap;connectable=0;fillColor=none;top=0;left=0;bottom=0;right=0;overflow=hidden;" parent="orFexbNTXFUOZaCGS8_f-9" vertex="1">
          <mxGeometry x="50" width="50" height="35" as="geometry">
            <mxRectangle width="50" height="35" as="alternateBounds" />
          </mxGeometry>
        </mxCell>
        <mxCell id="orFexbNTXFUOZaCGS8_f-12" value="..." style="shape=partialRectangle;html=1;whiteSpace=wrap;connectable=0;fillColor=none;top=0;left=0;bottom=0;right=0;overflow=hidden;" parent="orFexbNTXFUOZaCGS8_f-9" vertex="1">
          <mxGeometry x="100" width="50" height="35" as="geometry">
            <mxRectangle width="50" height="35" as="alternateBounds" />
          </mxGeometry>
        </mxCell>
        <mxCell id="orFexbNTXFUOZaCGS8_f-13" value="" style="shape=tableRow;horizontal=0;startSize=0;swimlaneHead=0;swimlaneBody=0;top=0;left=0;bottom=0;right=0;collapsible=0;dropTarget=0;fillColor=none;points=[[0,0.5],[1,0.5]];portConstraint=eastwest;" parent="orFexbNTXFUOZaCGS8_f-8" vertex="1">
          <mxGeometry y="35" width="150" height="44" as="geometry" />
        </mxCell>
        <mxCell id="orFexbNTXFUOZaCGS8_f-14" value="..." style="shape=partialRectangle;html=1;whiteSpace=wrap;connectable=0;fillColor=none;top=0;left=0;bottom=0;right=0;overflow=hidden;" parent="orFexbNTXFUOZaCGS8_f-13" vertex="1">
          <mxGeometry width="50" height="44" as="geometry">
            <mxRectangle width="50" height="44" as="alternateBounds" />
          </mxGeometry>
        </mxCell>
        <mxCell id="orFexbNTXFUOZaCGS8_f-15" value="y:config2" style="shape=partialRectangle;html=1;whiteSpace=wrap;connectable=0;fillColor=none;top=0;left=0;bottom=0;right=0;overflow=hidden;" parent="orFexbNTXFUOZaCGS8_f-13" vertex="1">
          <mxGeometry x="50" width="50" height="44" as="geometry">
            <mxRectangle width="50" height="44" as="alternateBounds" />
          </mxGeometry>
        </mxCell>
        <mxCell id="orFexbNTXFUOZaCGS8_f-16" value="..." style="shape=partialRectangle;html=1;whiteSpace=wrap;connectable=0;fillColor=none;top=0;left=0;bottom=0;right=0;overflow=hidden;" parent="orFexbNTXFUOZaCGS8_f-13" vertex="1">
          <mxGeometry x="100" width="50" height="44" as="geometry">
            <mxRectangle width="50" height="44" as="alternateBounds" />
          </mxGeometry>
        </mxCell>
        <mxCell id="orFexbNTXFUOZaCGS8_f-17" value="" style="shape=tableRow;horizontal=0;startSize=0;swimlaneHead=0;swimlaneBody=0;top=0;left=0;bottom=0;right=0;collapsible=0;dropTarget=0;fillColor=none;points=[[0,0.5],[1,0.5]];portConstraint=eastwest;" parent="orFexbNTXFUOZaCGS8_f-8" vertex="1">
          <mxGeometry y="79" width="150" height="35" as="geometry" />
        </mxCell>
        <mxCell id="orFexbNTXFUOZaCGS8_f-18" value="z:config3" style="shape=partialRectangle;html=1;whiteSpace=wrap;connectable=0;fillColor=none;top=0;left=0;bottom=0;right=0;overflow=hidden;" parent="orFexbNTXFUOZaCGS8_f-17" vertex="1">
          <mxGeometry width="50" height="35" as="geometry">
            <mxRectangle width="50" height="35" as="alternateBounds" />
          </mxGeometry>
        </mxCell>
        <mxCell id="orFexbNTXFUOZaCGS8_f-19" value="..." style="shape=partialRectangle;html=1;whiteSpace=wrap;connectable=0;fillColor=none;top=0;left=0;bottom=0;right=0;overflow=hidden;" parent="orFexbNTXFUOZaCGS8_f-17" vertex="1">
          <mxGeometry x="50" width="50" height="35" as="geometry">
            <mxRectangle width="50" height="35" as="alternateBounds" />
          </mxGeometry>
        </mxCell>
        <mxCell id="orFexbNTXFUOZaCGS8_f-20" value="..." style="shape=partialRectangle;html=1;whiteSpace=wrap;connectable=0;fillColor=none;top=0;left=0;bottom=0;right=0;overflow=hidden;pointerEvents=1;" parent="orFexbNTXFUOZaCGS8_f-17" vertex="1">
          <mxGeometry x="100" width="50" height="35" as="geometry">
            <mxRectangle width="50" height="35" as="alternateBounds" />
          </mxGeometry>
        </mxCell>
        <mxCell id="orFexbNTXFUOZaCGS8_f-22" value="Configuration" style="ellipse;whiteSpace=wrap;html=1;align=center;" parent="1" vertex="1">
          <mxGeometry x="841" y="550.63" width="100" height="40" as="geometry" />
        </mxCell>
        <mxCell id="orFexbNTXFUOZaCGS8_f-23" style="edgeStyle=orthogonalEdgeStyle;rounded=0;orthogonalLoop=1;jettySize=auto;html=1;" parent="1" source="orFexbNTXFUOZaCGS8_f-13" target="orFexbNTXFUOZaCGS8_f-22" edge="1">
          <mxGeometry relative="1" as="geometry" />
        </mxCell>
        <mxCell id="orFexbNTXFUOZaCGS8_f-27" style="edgeStyle=orthogonalEdgeStyle;rounded=0;orthogonalLoop=1;jettySize=auto;html=1;entryX=0.516;entryY=0.037;entryDx=0;entryDy=0;entryPerimeter=0;" parent="1" source="orFexbNTXFUOZaCGS8_f-17" target="orFexbNTXFUOZaCGS8_f-1" edge="1">
          <mxGeometry relative="1" as="geometry" />
        </mxCell>
        <mxCell id="Kr__zwhLty9OxRlOiyr0-1" style="edgeStyle=orthogonalEdgeStyle;rounded=0;orthogonalLoop=1;jettySize=auto;html=1;entryX=0.5;entryY=1;entryDx=0;entryDy=0;" edge="1" parent="1" source="orFexbNTXFUOZaCGS8_f-43" target="orFexbNTXFUOZaCGS8_f-2">
          <mxGeometry relative="1" as="geometry" />
        </mxCell>
        <mxCell id="orFexbNTXFUOZaCGS8_f-43" value="cheetara&lt;br&gt;&lt;div&gt;state&lt;/div&gt;&lt;div&gt;&lt;br&gt;&lt;/div&gt;" style="verticalLabelPosition=bottom;html=1;verticalAlign=top;align=center;strokeColor=none;fillColor=#00BEF2;shape=mxgraph.azure.virtual_machine;" parent="1" vertex="1">
          <mxGeometry x="181" y="682" width="50" height="40" as="geometry" />
        </mxCell>
        <mxCell id="Kr__zwhLty9OxRlOiyr0-2" style="edgeStyle=orthogonalEdgeStyle;rounded=0;orthogonalLoop=1;jettySize=auto;html=1;exitX=1;exitY=0.5;exitDx=0;exitDy=0;exitPerimeter=0;entryX=0;entryY=1;entryDx=0;entryDy=0;" edge="1" parent="1" source="orFexbNTXFUOZaCGS8_f-44" target="orFexbNTXFUOZaCGS8_f-2">
          <mxGeometry relative="1" as="geometry" />
        </mxCell>
        <mxCell id="orFexbNTXFUOZaCGS8_f-44" value="liono&lt;br&gt;&lt;div&gt;state&lt;/div&gt;&lt;div&gt;&lt;br&gt;&lt;/div&gt;" style="verticalLabelPosition=bottom;html=1;verticalAlign=top;align=center;strokeColor=none;fillColor=#00BEF2;shape=mxgraph.azure.virtual_machine;" parent="1" vertex="1">
          <mxGeometry x="102" y="617" width="50" height="40" as="geometry" />
        </mxCell>
        <mxCell id="Kr__zwhLty9OxRlOiyr0-6" style="edgeStyle=orthogonalEdgeStyle;rounded=0;orthogonalLoop=1;jettySize=auto;html=1;exitX=0.5;exitY=1;exitDx=0;exitDy=0;exitPerimeter=0;entryX=0;entryY=0;entryDx=0;entryDy=0;" edge="1" parent="1" source="orFexbNTXFUOZaCGS8_f-45" target="orFexbNTXFUOZaCGS8_f-2">
          <mxGeometry relative="1" as="geometry" />
        </mxCell>
        <mxCell id="orFexbNTXFUOZaCGS8_f-45" value="coroni&lt;br&gt;&lt;div&gt;state&lt;/div&gt;&lt;div&gt;&lt;br&gt;&lt;/div&gt;" style="verticalLabelPosition=bottom;html=1;verticalAlign=top;align=center;strokeColor=none;fillColor=#00BEF2;shape=mxgraph.azure.virtual_machine;" parent="1" vertex="1">
          <mxGeometry x="87" y="460" width="50" height="40" as="geometry" />
        </mxCell>
        <mxCell id="Kr__zwhLty9OxRlOiyr0-3" style="edgeStyle=orthogonalEdgeStyle;rounded=0;orthogonalLoop=1;jettySize=auto;html=1;exitX=1;exitY=0.5;exitDx=0;exitDy=0;exitPerimeter=0;entryX=0;entryY=0.5;entryDx=0;entryDy=0;" edge="1" parent="1" source="orFexbNTXFUOZaCGS8_f-46" target="orFexbNTXFUOZaCGS8_f-2">
          <mxGeometry relative="1" as="geometry" />
        </mxCell>
        <mxCell id="orFexbNTXFUOZaCGS8_f-46" value="davinci&lt;br&gt;&lt;div&gt;state&lt;/div&gt;&lt;div&gt;&lt;br&gt;&lt;/div&gt;" style="verticalLabelPosition=bottom;html=1;verticalAlign=top;align=center;strokeColor=none;fillColor=#00BEF2;shape=mxgraph.azure.virtual_machine;" parent="1" vertex="1">
          <mxGeometry x="31" y="550.5" width="50" height="40" as="geometry" />
        </mxCell>
      </root>
    </mxGraphModel>
  </diagram>
</mxfile>
